<svg
  xmlns="http://www.w3.org/2000/svg"
  version="1.1"
  xmlnsXlink="http://www.w3.org/1999/xlink"
  x={0}
  y={0}
  viewBox="0 0 64 64"
  xmlSpace="preserve"
  className=""
>
  <g>
    <path
      d="M55.648 31.386h-1.474c-.609-2.89-3.526-5.075-7.181-5.304-1-2.669-4.036-4.536-7.561-4.536a9.812 9.812 0 0 0-2.32.3 8.925 8.925 0 0 0-5.617-1.9 8.44 8.44 0 0 0-6.801 3.155c-3.985-.081-7.407 2.348-7.971 5.484a8.28 8.28 0 0 0-5.65 2.8H8.352a1 1 0 0 0-1 1v3.463A20.021 20.021 0 0 0 19.77 54.344v1.849A3.812 3.812 0 0 0 23.578 60h16.844a3.812 3.812 0 0 0 3.808-3.807v-1.85a20.021 20.021 0 0 0 12.418-18.495v-3.462a1 1 0 0 0-1-1zm-38.047-.85a.991.991 0 0 0 1.024-.995c-.059-2.646 3.242-4.728 6.541-4.425a1.018 1.018 0 0 0 .898-.493 6.24 6.24 0 0 1 5.431-2.678 6.778 6.778 0 0 1 4.66 1.71 1.196 1.196 0 0 0 .464.232c.931.04 1.833-.432 2.813-.342 3.035.007 5.437 1.688 5.934 3.96a1.004 1.004 0 0 0 .918.551c2.743-.03 5.148 1.404 5.818 3.33h-37.93a7.216 7.216 0 0 1 3.43-.85zM42.23 56.193A1.81 1.81 0 0 1 40.422 58H23.578a1.81 1.81 0 0 1-1.808-1.807v-1.155a19.908 19.908 0 0 0 5.579.807h9.302a19.908 19.908 0 0 0 5.579-.807zm12.419-20.345A18.018 18.018 0 0 1 36.65 53.846H27.35c-11.067-.003-19.004-9.64-17.997-20.46.026.003 2.173-.008 2.196.004.013-.013 41.71 0 41.731-.004a.12.12 0 0 0 .063 0h1.307zM23.728 15.442a1 1 0 0 0 1.57 1.24 5.108 5.108 0 0 0-.229-6.616 3.105 3.105 0 0 1 .148-4.338 1 1 0 0 0-1.389-1.44 5.099 5.099 0 0 0-.234 7.127 3.11 3.11 0 0 1 .134 4.027zM31.41 15.442a1 1 0 0 0 1.57 1.24 5.107 5.107 0 0 0-.228-6.616 3.105 3.105 0 0 1 .147-4.338 1 1 0 0 0-1.387-1.44 5.098 5.098 0 0 0-.236 7.127 3.11 3.11 0 0 1 .135 4.027zM39.094 15.442a1 1 0 0 0 1.569 1.24 5.108 5.108 0 0 0-.228-6.616 3.105 3.105 0 0 1 .147-4.338 1 1 0 0 0-1.388-1.44 5.098 5.098 0 0 0-.235 7.127 3.11 3.11 0 0 1 .135 4.027z"
      
      opacity={1}
      data-original="#000000"
      className=""
    />
  </g>
</svg>
