<svg
  xmlns="http://www.w3.org/2000/svg"
  version="1.1"
  xmlnsXlink="http://www.w3.org/1999/xlink"
  width={512}
  height={512}
  x={0}
  y={0}
  viewBox="0 0 510 510"
  xmlSpace="preserve"
  className=""
>
  <g>
    <path
      d="M280 265h-50c-5.523 0-10 4.477-10 10s4.477 10 10 10h50c5.523 0 10-4.477 10-10s-4.477-10-10-10z"
      
      opacity={1}
      data-original="#000000"
      className=""
    />
    <path
      d="M500 225h-12.996l-30.425-83.67c-5.728-15.749-20.835-26.33-37.592-26.33H91.013c-16.757 0-31.864 10.581-37.592 26.33L22.996 225H10c-5.523 0-10 4.477-10 10v40c0 5.523 4.477 10 10 10h12.996l30.426 83.665C59.146 384.417 74.252 395 91.01 395h327.98c16.758 0 31.864-10.583 37.588-26.332L487.004 285H500c5.523 0 10-4.477 10-10v-40c0-5.523-4.477-10-10-10zM72.217 148.165C75.081 140.29 82.634 135 91.013 135h327.975c8.379 0 15.932 5.29 18.796 13.165L465.723 225H350c0-22.056-17.944-40-40-40H200c-22.056 0-40 17.944-40 40H44.277zM330 225H180c0-11.028 8.972-20 20-20h110c11.028 0 20 8.972 20 20zm107.782 136.835C434.92 369.709 427.368 375 418.99 375H91.01c-8.378 0-15.93-5.291-18.792-13.168L44.277 285H173.82l17.236 34.472A9.998 9.998 0 0 0 200 325h110a10 10 0 0 0 8.944-5.528L336.18 285h129.542zM490 265H330a10 10 0 0 0-8.944 5.528L303.82 305h-97.64l-17.236-34.472A9.998 9.998 0 0 0 180 265H20v-20h470z"
      
      opacity={1}
      data-original="#000000"
      className=""
    />
  </g>
</svg>
