<svg
  xmlns="http://www.w3.org/2000/svg"
  version="1.1"
  xmlnsXlink="http://www.w3.org/1999/xlink"
  width={512}
  height={512}
  x={0}
  y={0}
  viewBox="0 0 64 64"

  xmlSpace="preserve"
  className=""
>
  <g>
    <path
      d="M50.482 14.345H21.388a1 1 0 0 0 0 2h29.094a.99.99 0 0 1 .989.988V57.93a.99.99 0 0 1-.989.988H14.985a.99.99 0 0 1-.988-.988V16.563a3.003 3.003 0 0 1 2.332-2.937l28.694-6.68a.989.989 0 0 1 1.213.962v3.883a1 1 0 0 0 2 0V7.908a3.007 3.007 0 0 0-3.666-2.91l-28.694 6.68a4.996 4.996 0 0 0-3.879 4.885V57.93a2.991 2.991 0 0 0 2.988 2.988h35.497a2.992 2.992 0 0 0 2.989-2.988V17.333a2.992 2.992 0 0 0-2.989-2.988z"
      
      opacity={1}
      data-original="#000000"
    />
    <path
      d="M20.67 20.348a1 1 0 0 0-1 1v8.748a2.46 2.46 0 0 0 .386 1.325l2.329 3.66a2.15 2.15 0 0 1 .325 1.343l-1.308 14.261c-.278 5.622 8.061 5.639 7.787 0l-1.308-14.261a2.15 2.15 0 0 1 .326-1.344l2.328-3.659a2.459 2.459 0 0 0 .386-1.325v-8.748a1 1 0 0 0-2 0v8.748a.466.466 0 0 1-.073.251l-2.328 3.66a4.159 4.159 0 0 0-.63 2.6l1.308 14.26a1.908 1.908 0 1 1-3.804 0l1.308-14.26a4.157 4.157 0 0 0-.63-2.6l-2.329-3.66a.47.47 0 0 1-.073-.25v-8.75a1 1 0 0 0-1-1z"
      
      opacity={1}
      data-original="#000000"
    />
    <path
      d="M24.704 28.733v-7.385a1 1 0 0 0-2 0v7.385a1 1 0 0 0 2 0zM27.887 28.733v-7.385a1 1 0 0 0-2 0v7.385a1 1 0 0 0 2 0zM36.77 23.836a3.432 3.432 0 0 1 4.477-1.32 1 1 0 0 0 .887-1.792 5.414 5.414 0 0 0-7.112 2.142 10.33 10.33 0 0 0 1.972 12.701l-1.289 13.867a5.819 5.819 0 0 0 1.727 4.732c2.99 2.725 6.471-.909 6.337-4.176 0-.171-.01-.353-.023-.553l-1.26-13.916a10.394 10.394 0 0 0 2.667-11.14 1 1 0 0 0-1.867.718 8.395 8.395 0 0 1-2.092 8.893 2.07 2.07 0 0 0-.73 1.76l1.288 13.843c.009.129.018.266.018.395.067 1.45-1.295 4.041-2.94 2.746a3.825 3.825 0 0 1-1.134-3.113l1.29-13.872a2.04 2.04 0 0 0-.692-1.721 8.283 8.283 0 0 1-1.524-10.194z"
      
      opacity={1}
      data-original="#000000"
    />
  </g>
</svg>
