<svg
  xmlns="http://www.w3.org/2000/svg"
  xmlnsXlink="http://www.w3.org/1999/xlink"
  preserveAspectRatio="xMidYMid meet"
  version={1.0}
  viewBox="0.0 -0.5 191.3 137.2"
  zoomAndPan="magnify"

>
  <g id="__id45_sdnfx96rkg">
    <path
      d="M98.7,134.6c-15.9-0.4-29.9-5.5-42.2-15.5c-13.7-11.2-21.7-25.8-24.3-43.1c-2.4-16,1-31,9.5-44.9c5.1-8.4,11.9-15,19.8-20.7 c1.9-1.4,3.7-2.9,6.3-2.8c0.6,0,1.3-0.5,2-0.8c9.7-5.1,20.1-7.3,31-6.6c15.3,1,28.9,6.4,40.5,16.7c10.5,9.3,17.5,20.8,20.7,34.5 c5,21.4,1,41.2-12.5,58.6c-9.7,12.6-22.8,20.1-38.3,23.2C107.2,133.9,102.9,134.1,98.7,134.6z M36.6,67c0,2.4-0.2,4.7,0,7.1 C38,86,42.1,96.9,49.4,106.4c6.6,8.6,14.8,15.2,24.8,19.4c9.4,3.9,19,5.6,29.2,4.6c6.6-0.7,12.9-2.2,18.9-4.9 c12.1-5.4,21.4-13.9,28.2-25.2c7.8-12.9,10.7-26.9,8.6-41.8c-2.5-17.7-10.9-32.2-25.2-43c-9.3-7-19.8-11.1-31.3-12.1 C92.1,2.5,82,4.3,72.3,8.3c-1.7,0.7-3.4,1.2-4.3,3c-0.3,0.6-1,1-1.7,1.3C57.6,17.2,51.1,24.2,46,32.3C39.3,42.9,36.2,54.5,36.6,67z M7.2,54.4c-0.8-2.4-1-5-1.1-7.5c-0.3-6.3-0.3-12.5-0.7-18.8c-0.2-2.6-0.8-5.2-1.4-7.7c-0.2-0.7-0.9-1.5-1.5-1.7 c-1.1-0.3-1.5,0.8-1.8,1.7c-0.1,0.3-0.2,0.7-0.2,1.1C0.3,24.1,0,26.7,0,29.3c0.1,5.6,0.3,11.2,0.5,16.9c0.2,4.3,1,8.4,2.4,12.5 c0.8,2.3,1.3,4.8,1.3,7.2c0.1,6-0.1,12-0.4,18C3.5,89,3.1,94.1,2.5,99.2c-0.7,6.1-1.3,12.3-0.4,18.4c0.7,4.7,1.8,9.3,4.2,13.4 c2.4,4,7,5.7,11.3,4.2c2.7-0.9,4.3-3,5.2-5.6c1-2.8,1.2-5.6,1.2-8.6c-0.1-11.3-0.8-22.5-1.8-33.7c-0.4-4.1-0.9-8.1-1.4-12.2 c-1-7.6-1.3-15.2,2-22.5c2.6-5.6,3.2-11.5,2.9-17.6c-0.2-4.3-0.4-8.5-0.7-12.8c-0.1-2.4-0.3-4.9-0.5-7.3c-0.1-0.9-0.2-2-1.4-2 c-1.2,0-1.3,1.1-1.4,2c0,0.1,0,0.2,0,0.3c-0.2,5.4-0.4,10.9-0.7,16.3c-0.1,2.8-0.3,5.6-0.6,8.4c-0.3,3.4-1.3,6.5-3.1,9.5 c-2.6,4.1-3.5,8.7-3.5,13.5c0,8.7,1.8,17.1,2.5,25.7c0.6,6.6,1.4,13.2,2,19.8c0.4,4.2,0.8,8.3,0.9,12.5c0.1,2.5-0.1,5.1-0.5,7.6 c-0.7,3.7-3.7,4.9-6.7,2.6c-1.2-0.9-2.3-2.3-3-3.7c-0.9-1.8-1.5-3.7-1.9-5.6c-1.6-6.4-1.5-13-0.5-19.5c1.6-10.3,2.6-20.7,2.6-32.4 C9.5,65.6,9,59.9,7.2,54.4z M177.2,82.5c-0.4,2.6-0.8,5.2-1.4,7.8c-2,9.8-1.8,19.7-0.7,29.5c0.3,2.3,0.8,4.7,1.5,6.9 c1,3.3,3.2,5.8,6.7,6.6c4,1,8,0.3,7.6-5.2c0-0.5,0-1.1,0-1.6c-0.2-11.6-0.2-23.2-0.5-34.9c-0.3-11-0.7-22-1.1-32.9 c-0.2-7.7-0.4-15.4-0.7-23.1c-0.2-4.7-0.5-9.4-0.7-14.1c-0.1-2.5-0.2-5.1-0.5-7.6c-0.1-1.5-0.5-3-0.8-4.5c-0.1-0.4-0.7-0.6-1.1-1 c-0.2,0.5-0.4,0.8-0.4,1c0.3,11.3,0.4,22.5-0.2,33.8c-0.5,9.1-0.7,18.2-0.7,27.2c0,10.5,0.2,21.1,0.5,31.6 c0.2,7.7,0.8,15.4,1.2,23.1c0.1,1.1,0.2,2.3,0.4,3.6c-2.1-0.3-3.3-1.4-3.9-3c-0.6-1.7-1.1-3.5-1.4-5.3c-0.7-5.1-1.3-10.3-1.8-15.4 c-0.3-4.1-0.3-8.2-0.3-12.2c0-3.4,0.2-6.9,0.3-10.3c0-0.7-0.2-1.3-0.4-2.2C177.4,80.7,177.3,81.6,177.2,82.5z M178,42.9 c1-9.3,2-18.6,3-27.9c0.1-1.1,0.1-2.2-0.1-3.3c-0.1-0.5-0.6-0.9-1.1-1.5c-0.4,0.8-0.8,1.3-0.9,1.8c-1.4,5.8-2.9,11.6-3.9,17.5 c-1.8,9.9-3.3,19.9-4.7,29.8c-0.5,3.4-0.7,6.9-0.8,10.3c-0.1,2.6,1.3,4.1,3.8,4.5c1.7,0.3,3.4,0.1,5.1,0.1c1,0,1.8-0.4,2-1.4 c0.2-1.1-0.2-2-1.2-2.5c-1.3-0.7-2.6-1.3-4.1-2.2C176.1,59.6,177.1,51.3,178,42.9z M13,33.5c0.3-4.4,0.5-8.8,0.6-13.3 c0-1.5-0.5-3-0.9-4.5c-0.1-0.4-0.8-0.9-1.1-0.9c-0.5,0.1-1,0.6-1.4,1c-0.2,0.2-0.3,0.7-0.3,1c-0.2,5.7-0.4,11.4-0.5,17.1 c0,1.2,0.3,2.3,1.6,3C12.6,36.3,12.9,34.8,13,33.5z M15.9,16.7c-0.3,1.4-0.6,2.8-0.7,4.3c-0.1,4.7,0,9.4,0,14.1c0,0.5-0.1,1,0.1,1.3 c0.3,0.6,0.9,1,1.3,1.5c0.5-0.5,1.2-0.9,1.4-1.4c0.3-1.4,0.3-2.9,0.5-4.3c0.9-5.3-0.2-10.4-0.8-15.6c0-0.4-0.5-0.8-1-1.4 C16.5,15.9,16,16.3,15.9,16.7z M136.3,95.8c-1.9,1.9-3.7,4-5.8,5.7c-11,9.1-23.7,12.4-37.7,10c-10.7-1.8-19.9-6.8-27.4-14.6 C54.9,86.1,50.1,73.3,51.9,58.2c0.1-0.5,0.3-1.1,0.2-1.6c-0.1-1.1-0.6-1.9-1.8-2.1c-1.1-0.2-2,0.2-2.5,1.3c-0.2,0.4-0.3,0.8-0.4,1.3 c-0.7,5-0.8,10,0.1,14.9c3.2,16.8,12.6,29.1,27.5,37.2c8.6,4.7,18,6.5,27.8,6c8.9-0.4,17.1-3.1,24.4-8.2c3.9-2.7,7.2-6,9.9-10 c0.4-0.6,1.1-1.1,0.1-2C137,95.3,136.6,95.5,136.3,95.8z M146.3,71.9c0.2-0.3,0.3-0.6,0.4-1c1.9-5.4,2-10.8,0.7-16.3 c-2.5-10.6-8.6-18.9-17-25.5c-8.5-6.6-18.2-10.4-28.9-11.7c-11.4-1.4-22.2,0.5-32.3,6.2c-4.7,2.7-8.8,6.1-11.9,10.6 c-0.5,0.7-0.9,1.4-1.2,2.1c-0.5,1.1-0.2,2,0.7,2.7c0.9,0.7,1.9,0.7,2.8,0c0.6-0.5,1.2-1.2,1.6-1.8c4.5-6.5,10.7-10.8,18.1-13.3 c9.5-3.2,19.3-3.5,29-1.2c13.6,3.2,24.7,10.3,32.3,22.3c4.1,6.6,6,13.9,5.1,21.8c-0.1,1.3-0.4,2.5-0.5,3.8c0,0.6,0.1,1.2,0.3,2 C146,72.1,146.2,72,146.3,71.9z"
      fill= "inherit" 
    />
  </g>
</svg>
