<svg
  xmlns="http://www.w3.org/2000/svg"
  xmlnsXlink="http://www.w3.org/1999/xlink"
  data-name="Livello 1"
  preserveAspectRatio="xMidYMid meet"
  version={1.0}
  viewBox="-0.5 -0.2 67.9 98.7"
  zoomAndPan="magnify"
>
  <g id="__id69_sdj4l5s88">
    <path
      d="M407.68,249.06l2.27.5a1.48,1.48,0,0,0,.42,0q12-.39,24.06-.77c4.93-.15,9.86-.14,14.78-.39,3.46-.18,5.07,1.14,6.46,4.37a49.51,49.51,0,0,1,1.8,5.81,1.67,1.67,0,0,1,0,.83c-.45,2,.07,3.93.19,5.89.24,3.86.6,7.72.9,11.58q.54,7.11,1,14.22c.26,3.68.5,7.37.77,11.05.25,3.53.54,7.05.79,10.57.23,3.15.42,6.3.65,9.44s.45,6.21.67,9.31a26.19,26.19,0,0,1,.23,3.94,9.54,9.54,0,0,1-.85,3,6.31,6.31,0,0,1-3.55,3.38,5.09,5.09,0,0,1-1.46.26l-9,.63c-3.06.22-6.12.45-9.19.66-2.25.15-4.5.28-6.75.41-4.57.25-9.13.48-13.69.74a1.1,1.1,0,0,0-.63.28,3.28,3.28,0,0,0-.62.72,3.49,3.49,0,0,1-5.71-.19.89.89,0,0,0-.93-.44c-1.9.12-3.79.31-5.68.28a8.79,8.79,0,0,1-3.51-.48c-1.45-.64-3.19-3.1-3.1-4.62.27-4.71-.23-9.4-.32-14.1-.08-3.91-.26-7.82-.4-11.74-.18-4.85-.38-9.69-.56-14.54-.14-3.57-.27-7.15-.4-10.72q-.29-8.26-.56-16.52c-.11-3.07-.2-6.15-.28-9.22-.07-2.7-.1-5.39-.15-8.09,0,0,0-.08,0-.12-.57-1.27.24-2,1.12-2.63a12.75,12.75,0,0,1,6.8-2.7c.75,0,1.49-.26,2.24-.37S407,249.15,407.68,249.06ZM424,338.12c.84.63,1.82,1.32,2.75,2.06a14.63,14.63,0,0,1,1.51,1.44c.73.79,1.64.65,2.56.6l14.82-.81c3.63-.19,7.26-.36,10.88-.56a3.3,3.3,0,0,0,1-.25,9.26,9.26,0,0,0,3.17-2.38,3.08,3.08,0,0,0,1-2.6c-.17-2.85-.42-5.69-.65-8.53-.21-2.65-.43-5.29-.64-7.94-.27-3.44-.53-6.88-.8-10.32s-.5-6.73-.76-10.1c-.3-3.9-.62-7.8-.92-11.7s-.61-7.88-.89-11.82c-.32-4.51-.61-9-.91-13.51a21,21,0,0,0-.21-3.09c-.35-1.55-.88-3.06-1.35-4.59a8.57,8.57,0,0,0-2.25-3.68.82.82,0,0,0-.55-.25c-.65,0-1.29.23-1.94.24-5.61.1-11.22.21-16.83.25-8.22.06-16.45.07-24.67.09-.3,0-.59-.07-.89-.09a6.58,6.58,0,0,0-1.33-.05c-1,.14-2,.37-3.06.51a13.14,13.14,0,0,0-6.53,3.15,1,1,0,0,0-.33.71c.11,2.13.28,4.26.39,6.39.18,3.63.33,7.26.48,10.89.2,4.66.41,9.33.59,14q.38,9.31.73,18.62.3,8,.62,16a.89.89,0,0,0,.28.59c2.05,1.42,4.11,2.81,6.23,4.26a4.22,4.22,0,0,1,2.6-2.41A3.07,3.07,0,0,1,412,325a9.1,9.1,0,0,1,.47,2.69,17.45,17.45,0,0,1-.25,2.67c1.93.11,3.77.43,4.36,2.91.75-.2,1.54-.36,2.3-.63a10.43,10.43,0,0,1,4.18-.53,2.06,2.06,0,0,1,2.1,2.8C424.88,336,424.42,337,424,338.12Zm-12.51.23a15.81,15.81,0,0,0,.19,1.76c.2,1,.44,2.06.73,3.08.51,1.79,1.66,2.74,3.26,1.38l.28-.23,3.65-3.75c.1-.1.18-.22.27-.32.74-.86,1.44-1.76,2.24-2.56a6.72,6.72,0,0,0,1.72-3c.21-.83,0-1.13-.84-1.27a1.89,1.89,0,0,0-.53,0l-6.17.8v.44a2.66,2.66,0,0,1-1.44,2.48A7.11,7.11,0,0,1,411.53,338.35Zm-3.93-2.14a3.64,3.64,0,0,1,.46-3.16,9,9,0,0,1,2.13-2,1.53,1.53,0,0,0,.87-1.64c-.11-1.15-.07-2.32-.28-3.44a1.68,1.68,0,0,0-2.74-1.14,4.9,4.9,0,0,0-1.92,2.29c-.48,1.11-1,2.21-1.56,3.28-1,1.92-2,3.82-3.05,5.73-.19.37-.12.65.36.61Zm2.88,7.35-.4-5.21-2-1.14a14.71,14.71,0,0,1-1.94.68c-1.1.21-2.21.3-3.32.43s-2.31.08-3-.95c-.13.91-.26,1.84-.38,2.77a.54.54,0,0,0,.1.34c.68,1,1.34,2,2.1,2.95a1.8,1.8,0,0,0,1.18.47,19.82,19.82,0,0,0,2.67,0C407.16,343.82,408.87,343.68,410.48,343.56Zm-11.42-21c0,.16,0,.35,0,.54.08,1.94.31,3.88.2,5.8a2.94,2.94,0,0,0,2,3.3c.53.23.76.2,1-.3.74-1.47,1.48-2.94,2.27-4.39.27-.49.24-.78-.24-1.12C402.57,325.14,400.84,323.85,399.06,322.55Zm13.56,9a3.9,3.9,0,0,0-1.31.39,10.35,10.35,0,0,0-2,2,1.75,1.75,0,0,0,1.31,2.68,4.89,4.89,0,0,0,3.18-.77,2.67,2.67,0,0,0,1.43-2,1.31,1.31,0,0,0-.82-1.76A12.48,12.48,0,0,0,412.62,331.58Zm14.94,10.83-4.34-3.66-3.3,4.18Zm-28-6.37,1.44-2.55-1.6-1.08Z"
      transform="translate(-395.26 -248.4)"
      
    />
  </g>
  <g id="__id70_sdj4l5s88">
    <path
      d="M439.48,262.57c.1,1.19.14,2.39.32,3.57a6,6,0,0,0,2.27,3.75,1.76,1.76,0,0,0,3-1.12,16.26,16.26,0,0,0-.19-5.3c-.35-2.19-.65-4.38-1-6.57a3.65,3.65,0,0,1,.05-1.36,1,1,0,0,1,.59-.68c.18-.05.57.28.68.52a5.9,5.9,0,0,1,.38,1.5c.35,2.75.76,5.49,1,8.25a16.62,16.62,0,0,1-.16,4.4,3.19,3.19,0,0,1-5.06,1.94,7.38,7.38,0,0,1-3.38-6.28,44,44,0,0,1,.48-5.23.9.9,0,0,1,.56-.62c.41-.08.49.32.49.65,0,.86,0,1.72,0,2.57Z"
      transform="translate(-395.26 -248.4)"
      
    />
  </g>
  <g id="__id71_sdj4l5s88">
    <path
      d="M413.25,261.3c1-2.06,2-4.07,3-6.09.19-.38.39-.78.88-.64a1,1,0,0,1,.87,1c.08,3.21.22,6.42.34,9.63l.21,5.26c0,.2.08.43,0,.59s-.33.45-.51.45-.36-.27-.52-.44,0-.16,0-.24c-.08-3.71-.17-7.42-.24-11.13,0-1.05,0-2.11,0-3.17l-.18,0a2.78,2.78,0,0,0-.26.34l-3,5.1a1.59,1.59,0,0,0-.12.27c-.24.62-.68.76-1.2.35s-1-.87-1.48-1.32l-3.38-3.18c.12,1,.21,1.94.32,2.83.26,2.21.53,4.43.79,6.64.08.63.14,1.27.19,1.9a2.17,2.17,0,0,1,0,.72c0,.15-.23.36-.37.37a.53.53,0,0,1-.4-.33c-.14-.7-.27-1.41-.35-2.12-.3-2.91-.57-5.82-.87-8.73-.06-.53-.21-1.05-.32-1.57a.67.67,0,0,1,.41-.82,1.38,1.38,0,0,1,1.76.31c1.31,1.23,2.66,2.42,4,3.62Z"
      transform="translate(-395.26 -248.4)"
      
    />
  </g>
  <g id="__id72_sdj4l5s88">
    <path
      d="M431,260.61c-.09,1.93-.17,3.67-.25,5.42a3.6,3.6,0,0,1-.1.88c-.08.21-.31.36-.47.53-.16-.19-.44-.37-.47-.58a8.66,8.66,0,0,1,0-1.61c.09-1.64.2-3.27.32-4.9,0-.79.11-1.59.22-2.37,0-.21.24-.39.37-.59.17.16.42.29.51.49,1,2.27,2,4.56,3,6.84l.17,0a6,6,0,0,0,.06-.61c0-2.33-.07-4.66-.07-7a23.31,23.31,0,0,1,.12-2.51c0-.44.18-.92.76-.89s.64.46.69.89a2,2,0,0,1,0,.42c-.06,1.85-.08,3.71-.19,5.56-.12,2.06-.32,4.13-.48,6.2a.07.07,0,0,1,0,.05l-.69,1.11c-.25-.3-.63-.58-.72-.92-.52-2.12-1.71-3.95-2.51-5.94C431.15,261,431.09,260.87,431,260.61Z"
      transform="translate(-395.26 -248.4)"
      
    />
  </g>
  <g id="__id73_sdj4l5s88">
    <path
      d="M422.18,259.65v4.41c1,0,1.95-.08,2.91-.09a1.53,1.53,0,0,1,.8.19,1.09,1.09,0,0,1,.45.69,1,1,0,0,1-.48.66,2.18,2.18,0,0,1-1.05.14c-.87-.06-1.74-.17-2.68-.27,0,.22-.05.46-.05.71,0,1.14,0,2.28,0,3.41,0,.51.2.7.64.7,1.08,0,2.15,0,3.23,0a4.18,4.18,0,0,1,1.06.09.62.62,0,0,1,.46.84,1,1,0,0,1-.69.51c-1.58-.08-3.17-.23-4.75-.36l-.35,0c-.5,0-.69-.3-.66-.79.09-1.15.19-2.3.22-3.45.07-2.32.09-4.63.15-7,0-1.62.44-2,2.07-2a7.47,7.47,0,0,1,2,.33c.28.09.7.53.65.69-.11.32-.44.74-.74.79a9.63,9.63,0,0,1-2.08,0A9.1,9.1,0,0,1,422.18,259.65Z"
      transform="translate(-395.26 -248.4)"
      
    />
  </g>
  <g id="__id74_sdj4l5s88">
    <path
      d="M445.92,307.6c-.37.14-.6.25-.84.32a11.9,11.9,0,0,1-5.07.34,18.35,18.35,0,0,0-2.87,0c-1.13,0-2.26,0-3.4.08-1.68.07-3.37.16-5.06.22-1.13,0-2.27,0-3.4.06-2.37,0-4.74.08-7.1.1h-4.52l0-.15a17.31,17.31,0,0,1,1.74-.24c1.75-.11,3.5-.21,5.25-.25,2.59-.07,5.18-.06,7.76-.14,1.47,0,2.93-.28,4.4-.34,2.33-.08,4.66-.1,7-.12.6,0,1.2.13,1.79.12,1.35,0,2.7-.08,4-.12A1.67,1.67,0,0,1,445.92,307.6Z"
      transform="translate(-395.26 -248.4)"
      
    />
  </g>
  <g id="__id75_sdj4l5s88">
    <path
      d="M441.55,317.41c-.93.08-1.85.21-2.78.23-2.07,0-4.13.1-6.2.34a42.38,42.38,0,0,1-4.36-.07c-1.67,0-3.34.19-5,.23-3.22.06-6.45.08-9.68.12h-1.16l0-.24a12.18,12.18,0,0,1,1.95-.44c1.84-.13,3.7-.2,5.55-.24.85,0,1.71.09,2.57.09,1.41,0,2.83-.09,4.24-.1,1.21,0,2.43.12,3.64.08,1.61,0,3.22-.2,4.83-.26,1.87-.08,3.75-.12,5.62-.15a4.46,4.46,0,0,1,.87.17Z"
      transform="translate(-395.26 -248.4)"
      
    />
  </g>
  <g id="__id76_sdj4l5s88">
    <path
      d="M438.14,281.43a15.77,15.77,0,0,1-1.91.39c-2.24.19-4.49.31-6.73.49-.87.07-1.73.27-2.6.35-1.19.1-2.39.11-3.57.23-1.8.18-3.59.45-5.38.65-1.4.16-2.81.26-4.21.42s-2.67.38-4,.56c-.07,0-.13,0-.24-.12a1.65,1.65,0,0,1,.47-.25c1.3-.26,2.6-.55,3.91-.74,2.3-.33,4.6-.62,6.91-.89,1.24-.15,2.5-.2,3.74-.32,1.48-.15,3-.36,4.44-.5,1.11-.1,2.23-.15,3.34-.21l5.37-.25c.15,0,.3,0,.45,0Z"
      transform="translate(-395.26 -248.4)"
      
    />
  </g>
  <g id="__id77_sdj4l5s88">
    <path
      d="M407.9,294.45a2.89,2.89,0,0,1,.4,0,24.34,24.34,0,0,0,6.9-.68,44.75,44.75,0,0,1,4.92-.46c1.8-.14,3.61-.3,5.41-.41a11,11,0,0,1,1.61.11,16.21,16.21,0,0,0,4.7-.64,24.93,24.93,0,0,1,5-.44l.05.16a1.59,1.59,0,0,1-.4.18c-1.7.29-3.42.49-5.11.86a18.2,18.2,0,0,1-5.56.38,21.47,21.47,0,0,0-3.09.2c-1.49.09-3,.1-4.47.25-1.71.16-3.42.41-5.13.67a13.61,13.61,0,0,1-5,.05.63.63,0,0,1-.22-.07S407.93,294.53,407.9,294.45Z"
      transform="translate(-395.26 -248.4)"
      
    />
  </g>
  <g id="__id78_sdj4l5s88">
    <path
      d="M444.79,294.57a10.43,10.43,0,0,1-4.06,1.14,46.46,46.46,0,0,0-8,.82,31.63,31.63,0,0,1-3.38.26l-.05-.17c.52-.13,1-.29,1.55-.38,1.74-.31,3.47-.62,5.22-.87,1.19-.17,2.41-.2,3.61-.34.95-.1,1.88-.29,2.83-.42.74-.1,1.48-.17,2.22-.26Z"
      transform="translate(-395.26 -248.4)"
      
    />
  </g>
  <g id="__id79_sdj4l5s88">
    <path
      d="M421.55,305.35c-3,0-5.8,1.14-8.75,1.18l0-.31C415.65,305.56,418.5,304.6,421.55,305.35Z"
      transform="translate(-395.26 -248.4)"
      
    />
  </g>
  <g id="__id80_sdj4l5s88">
    <path
      d="M447.68,314.93a3.42,3.42,0,0,0-2.66-.07,23.48,23.48,0,0,1-6.95.15c-.08,0-.16-.09-.24-.13l0-.2c1.13,0,2.26.05,3.38,0,1.37-.08,2.73-.26,4.09-.38a15.14,15.14,0,0,1,1.78-.07C447.5,314.23,447.82,314.4,447.68,314.93Z"
      transform="translate(-395.26 -248.4)"
      
    />
  </g>
  <g id="__id81_sdj4l5s88">
    <path
      d="M408.43,292.22c.34-.91,4-1.26,5.21-.61Z"
      transform="translate(-395.26 -248.4)"
      
    />
  </g>
  <g id="__id82_sdj4l5s88">
    <path
      d="M409.29,282.41a19.15,19.15,0,0,1,4.83-.43A10,10,0,0,1,409.29,282.41Z"
      transform="translate(-395.26 -248.4)"
      
    />
  </g>
  <g id="__id83_sdj4l5s88">
    <path
      d="M414.2,289.61l-3.59.53C410.89,289.45,413.14,289.12,414.2,289.61Z"
      transform="translate(-395.26 -248.4)"
      
    />
  </g>
</svg>
